<?xml version="1.0" encoding="UTF-8"?>
<svg version="1.1" xmlns="http://www.w3.org/2000/svg" width="605" height="402">
<path d="M0 0 C2.64617286 -0.00435385 5.29064575 -0.04074477 7.93652344 -0.07861328 C23.02866394 -0.17870822 37.7775558 1.94737933 51.92089844 7.43310547 C52.68289551 7.7227417 53.44489258 8.01237793 54.22998047 8.31079102 C69.2425289 14.23215383 83.30744102 21.81429226 95.54589844 32.37060547 C96.4340625 33.13244141 97.32222656 33.89427734 98.23730469 34.67919922 C100.71920239 36.86554269 103.14159411 39.09942537 105.54589844 41.37060547 C106.29355469 42.06541016 107.04121094 42.76021484 107.81152344 43.47607422 C124.34059869 59.34051883 135.3740432 79.1895615 143.54589844 100.37060547 C144.33593316 102.41290418 145.12722066 104.45471976 145.92089844 106.49560547 C146.19675781 107.24068359 146.47261719 107.98576172 146.75683594 108.75341797 C147.44107935 110.57142024 147.44107935 110.57142024 149.54589844 111.37060547 C150.92615167 111.58748695 152.3131846 111.76219377 153.70214844 111.91357422 C184.73521711 115.59935879 208.56371846 128.14837049 230.54589844 150.37060547 C231.69638672 151.52496094 231.69638672 151.52496094 232.87011719 152.70263672 C251.68066228 172.44593612 264.54577381 200.26189754 264.78417969 227.69482422 C264.79225143 228.59570267 264.80032318 229.49658112 264.80863953 230.42475891 C264.82243771 232.33352768 264.83317884 234.24232069 264.84106445 236.15112305 C264.85248211 238.06591237 264.87276765 239.98067252 264.90258789 241.89526367 C265.37221964 272.12747959 257.5808334 301.89477901 236.58496094 324.47998047 C232.58686638 328.80993267 229.22527407 333.24501481 226.10839844 338.24560547 C207.50631576 367.99381088 176.62664597 389.96189767 142.54589844 398.37060547 C129.09389614 401.33339105 115.83277052 402.52075044 102.06375122 402.51104736 C100.72056394 402.51363632 99.37737743 402.51665094 98.03419197 402.52005076 C94.36707918 402.52806195 90.69998603 402.52990703 87.03286552 402.53064823 C83.06806293 402.53250915 79.10327029 402.54006169 75.13847351 402.54678345 C66.47890945 402.5603261 57.81935005 402.56638532 49.15977716 402.57079411 C43.7439772 402.57356382 38.32817899 402.57780251 32.91238022 402.58229828 C17.89302495 402.59448637 2.87367109 402.60478611 -12.14568901 402.60817337 C-13.10571544 402.60839294 -14.06574187 402.6086125 -15.05486 402.60883872 C-16.01707781 402.609057 -16.97929561 402.60927528 -17.97067153 402.60950017 C-19.92022634 402.60994362 -21.86978114 402.61039019 -23.81933594 402.61083984 C-24.78636574 402.61106127 -25.75339555 402.6112827 -26.74972929 402.61151084 C-42.40076414 402.61545448 -58.05175231 402.6328973 -73.70276915 402.65619937 C-89.80360083 402.67997594 -105.90440917 402.69237811 -122.00525868 402.69354129 C-131.0322271 402.69445459 -140.05913471 402.70011934 -149.08608627 402.7183609 C-156.77632241 402.73384737 -164.46647893 402.73883245 -172.15672772 402.7306228 C-176.07215014 402.72674609 -179.98741266 402.72749774 -183.90281487 402.74168015 C-212.44907889 402.83897113 -238.76141053 400.60174935 -264.45410156 387.37060547 C-265.91589844 386.64550781 -265.91589844 386.64550781 -267.40722656 385.90576172 C-279.57220962 379.63210617 -289.6123057 370.73368737 -299.45410156 361.37060547 C-300.13859375 360.75056641 -300.82308594 360.13052734 -301.52832031 359.49169922 C-326.97631694 335.64420553 -339.20250649 302.49796898 -340.58007812 268.23754883 C-340.90860017 254.39907752 -341.04368481 240.8143323 -337.45410156 227.37060547 C-337.26605957 226.66210449 -337.07801758 225.95360352 -336.88427734 225.22363281 C-332.11335816 207.99594611 -323.87878693 192.11361173 -312.45410156 178.37060547 C-311.99777344 177.81034668 -311.54144531 177.25008789 -311.07128906 176.67285156 C-285.23714801 145.01048684 -251.03873359 126.79396487 -210.57519531 122.66748047 C-209.54523438 122.56951172 -208.51527344 122.47154297 -207.45410156 122.37060547 C-207.11378906 121.32904297 -206.77347656 120.28748047 -206.42285156 119.21435547 C-197.87947993 93.69831228 -183.99510956 71.84132017 -165.45410156 52.37060547 C-164.69871094 51.53916016 -163.94332031 50.70771484 -163.16503906 49.85107422 C-151.50131925 37.44584645 -136.58103033 28.0122311 -121.45410156 20.37060547 C-120.76944824 20.0215918 -120.08479492 19.67257813 -119.37939453 19.31298828 C-94.87206864 7.04519193 -66.53989485 1.88276803 -39.28417969 2.49755859 C-34.211322 2.55602543 -29.48015118 2.2805362 -24.48144531 1.39013672 C-16.33405962 0.02750143 -8.2397775 -0.00150967 0 0 Z " fill="#FEFEFE" transform="translate(340.4541015625,-0.37060546875)"/>
<path d="M0 0 C2.64617286 -0.00435385 5.29064575 -0.04074477 7.93652344 -0.07861328 C23.02866394 -0.17870822 37.7775558 1.94737933 51.92089844 7.43310547 C52.68289551 7.7227417 53.44489258 8.01237793 54.22998047 8.31079102 C69.2425289 14.23215383 83.30744102 21.81429226 95.54589844 32.37060547 C96.4340625 33.13244141 97.32222656 33.89427734 98.23730469 34.67919922 C100.71920239 36.86554269 103.14159411 39.09942537 105.54589844 41.37060547 C106.29355469 42.06541016 107.04121094 42.76021484 107.81152344 43.47607422 C124.34059869 59.34051883 135.3740432 79.1895615 143.54589844 100.37060547 C144.33593316 102.41290418 145.12722066 104.45471976 145.92089844 106.49560547 C146.19675781 107.24068359 146.47261719 107.98576172 146.75683594 108.75341797 C147.44107935 110.57142024 147.44107935 110.57142024 149.54589844 111.37060547 C150.92615167 111.58748695 152.3131846 111.76219377 153.70214844 111.91357422 C184.73521711 115.59935879 208.56371846 128.14837049 230.54589844 150.37060547 C231.69638672 151.52496094 231.69638672 151.52496094 232.87011719 152.70263672 C251.68066228 172.44593612 264.54577381 200.26189754 264.78417969 227.69482422 C264.79225143 228.59570267 264.80032318 229.49658112 264.80863953 230.42475891 C264.82243771 232.33352768 264.83317884 234.24232069 264.84106445 236.15112305 C264.85248211 238.06591237 264.87276765 239.98067252 264.90258789 241.89526367 C265.37221964 272.12747959 257.5808334 301.89477901 236.58496094 324.47998047 C232.58686638 328.80993267 229.22527407 333.24501481 226.10839844 338.24560547 C207.50631576 367.99381088 176.62664597 389.96189767 142.54589844 398.37060547 C129.09389614 401.33339105 115.83277052 402.52075044 102.06375122 402.51104736 C100.72056394 402.51363632 99.37737743 402.51665094 98.03419197 402.52005076 C94.36707918 402.52806195 90.69998603 402.52990703 87.03286552 402.53064823 C83.06806293 402.53250915 79.10327029 402.54006169 75.13847351 402.54678345 C66.47890945 402.5603261 57.81935005 402.56638532 49.15977716 402.57079411 C43.7439772 402.57356382 38.32817899 402.57780251 32.91238022 402.58229828 C17.89302495 402.59448637 2.87367109 402.60478611 -12.14568901 402.60817337 C-13.10571544 402.60839294 -14.06574187 402.6086125 -15.05486 402.60883872 C-16.01707781 402.609057 -16.97929561 402.60927528 -17.97067153 402.60950017 C-19.92022634 402.60994362 -21.86978114 402.61039019 -23.81933594 402.61083984 C-24.78636574 402.61106127 -25.75339555 402.6112827 -26.74972929 402.61151084 C-42.40076414 402.61545448 -58.05175231 402.6328973 -73.70276915 402.65619937 C-89.80360083 402.67997594 -105.90440917 402.69237811 -122.00525868 402.69354129 C-131.0322271 402.69445459 -140.05913471 402.70011934 -149.08608627 402.7183609 C-156.77632241 402.73384737 -164.46647893 402.73883245 -172.15672772 402.7306228 C-176.07215014 402.72674609 -179.98741266 402.72749774 -183.90281487 402.74168015 C-212.44907889 402.83897113 -238.76141053 400.60174935 -264.45410156 387.37060547 C-265.91589844 386.64550781 -265.91589844 386.64550781 -267.40722656 385.90576172 C-279.57220962 379.63210617 -289.6123057 370.73368737 -299.45410156 361.37060547 C-300.13859375 360.75056641 -300.82308594 360.13052734 -301.52832031 359.49169922 C-326.97631694 335.64420553 -339.20250649 302.49796898 -340.58007812 268.23754883 C-340.90860017 254.39907752 -341.04368481 240.8143323 -337.45410156 227.37060547 C-337.26605957 226.66210449 -337.07801758 225.95360352 -336.88427734 225.22363281 C-332.11335816 207.99594611 -323.87878693 192.11361173 -312.45410156 178.37060547 C-311.99777344 177.81034668 -311.54144531 177.25008789 -311.07128906 176.67285156 C-285.23714801 145.01048684 -251.03873359 126.79396487 -210.57519531 122.66748047 C-209.54523438 122.56951172 -208.51527344 122.47154297 -207.45410156 122.37060547 C-207.11378906 121.32904297 -206.77347656 120.28748047 -206.42285156 119.21435547 C-197.87947993 93.69831228 -183.99510956 71.84132017 -165.45410156 52.37060547 C-164.69871094 51.53916016 -163.94332031 50.70771484 -163.16503906 49.85107422 C-151.50131925 37.44584645 -136.58103033 28.0122311 -121.45410156 20.37060547 C-120.76944824 20.0215918 -120.08479492 19.67257813 -119.37939453 19.31298828 C-94.87206864 7.04519193 -66.53989485 1.88276803 -39.28417969 2.49755859 C-34.211322 2.55602543 -29.48015118 2.2805362 -24.48144531 1.39013672 C-16.33405962 0.02750143 -8.2397775 -0.00150967 0 0 Z M-142.45410156 35.37060547 C-143.99904297 36.49015625 -143.99904297 36.49015625 -145.57519531 37.63232422 C-156.41243484 45.63563623 -167.24573343 54.55151547 -175.12207031 65.56591797 C-176.45410156 67.37060547 -176.45410156 67.37060547 -177.83691406 68.69091797 C-190.40485622 81.7445777 -197.93117582 100.48634957 -203.71142578 117.296875 C-203.95650879 117.98120605 -204.2015918 118.66553711 -204.45410156 119.37060547 C-204.8281311 120.69765503 -204.8281311 120.69765503 -205.2097168 122.05151367 C-206.45410156 124.37060547 -206.45410156 124.37060547 -208.82983398 125.24194336 C-210.30480347 125.41584595 -210.30480347 125.41584595 -211.80957031 125.59326172 C-212.89955322 125.73666992 -213.98953613 125.88007812 -215.11254883 126.02783203 C-216.27713623 126.16157227 -217.44172363 126.2953125 -218.64160156 126.43310547 C-221.03037369 126.75703978 -223.41841161 127.08643684 -225.80566406 127.42138672 C-227.53478027 127.66042725 -227.53478027 127.66042725 -229.29882812 127.90429688 C-253.66604641 131.50545649 -276.18150656 145.33097819 -294.45410156 161.37060547 C-295.13085938 161.90427734 -295.80761719 162.43794922 -296.50488281 162.98779297 C-321.67115245 183.26202221 -335.58586505 218.81617272 -339.22705078 250.07128906 C-342.57416436 283.96711238 -331.97777163 320.01379964 -310.45410156 346.37060547 C-309.97827637 346.96164062 -309.50245117 347.55267578 -309.01220703 348.16162109 C-286.00347886 376.54229915 -253.68161552 395.73926724 -217.08529162 399.69400233 C-204.49542648 400.89353516 -191.82837604 400.66184842 -179.19408417 400.64671385 C-175.27845742 400.64421695 -171.36285323 400.65329705 -167.44723511 400.66075134 C-159.80129297 400.67341916 -152.15538608 400.675302 -144.50943521 400.67295108 C-138.28630277 400.67115881 -132.06318092 400.6729369 -125.84004974 400.67717552 C-124.50504658 400.67806831 -124.50504658 400.67806831 -123.14307366 400.67897912 C-121.33428663 400.68019104 -119.5254996 400.68140517 -117.71671256 400.6826215 C-100.80148434 400.69346657 -83.88627611 400.69134899 -66.97104678 400.68523666 C-51.54570229 400.68007036 -36.120421 400.69132079 -20.69508901 400.71033487 C-4.80074607 400.72977469 11.09356706 400.73795854 26.98792195 400.73421162 C35.88909185 400.73230885 44.790208 400.73469623 53.6913681 400.74892616 C61.26931718 400.76091964 68.84717941 400.7621566 76.42512986 400.750136 C80.28022496 400.74430256 84.13516185 400.74299126 87.99024582 400.7551384 C135.46828667 400.89440087 173.46323491 392.07028957 207.97998047 357.953125 C232.97288209 332.8048271 246.86222306 297.27350583 246.7902832 261.99169922 C246.34656248 228.1645193 234.33528635 194.83290452 210.54589844 170.37060547 C209.76085937 169.51208984 208.97582031 168.65357422 208.16699219 167.76904297 C182.88300137 140.97959316 149.63987712 127.96078014 113.54589844 125.37060547 C113.35979004 124.7306665 113.17368164 124.09072754 112.98193359 123.43139648 C100.31306866 80.44459955 71.6326572 46.36603891 32.48852539 24.88891602 C-22.63338508 -4.23689328 -91.6339872 -2.01184152 -142.45410156 35.37060547 Z " fill="#BBBBBB" transform="translate(340.4541015625,-0.37060546875)"/>
<path d="M0 0 C7.72745885 6.41721535 12.99227209 14.75491079 15.02734375 24.68359375 C15.78137721 32.97796177 13.23599281 40.79713816 9.83203125 48.328125 C8.89740901 51.06393671 8.85027113 52.0614543 10.02734375 54.68359375 C11.83282247 56.85128959 11.83282247 56.85128959 14.02734375 58.87109375 C14.74921875 59.56589844 15.47109375 60.26070313 16.21484375 60.9765625 C16.81296875 61.53988281 17.41109375 62.10320312 18.02734375 62.68359375 C18.35734375 63.01359375 18.68734375 63.34359375 19.02734375 63.68359375 C20.27257812 63.71646484 20.27257812 63.71646484 21.54296875 63.75 C26.88035853 65.18008538 29.92187256 68.79538177 33.77734375 72.62109375 C34.54433594 73.36294922 35.31132812 74.10480469 36.1015625 74.86914062 C44.02345213 82.5473869 44.02345213 82.5473869 44.08984375 84.87109375 C42.52885526 89.00312211 39.77529658 92.30792286 36.02734375 94.68359375 C32.12907897 94.50695363 30.07384696 93.24430936 27.27734375 90.62109375 C26.59929687 89.99589844 25.92125 89.37070313 25.22265625 88.7265625 C24.13597656 87.71529297 24.13597656 87.71529297 23.02734375 86.68359375 C21.40395869 85.26507678 19.77897019 83.84839263 18.15234375 82.43359375 C12.28888102 77.32604782 12.28888102 77.32604782 11.63671875 73.23046875 C10.87843417 70.06122807 9.73771062 69.02398064 7.27734375 66.93359375 C6.601875 66.340625 5.92640625 65.74765625 5.23046875 65.13671875 C2.70199988 63.46900524 1.05111721 62.86173854 -1.97265625 62.68359375 C-4.34394813 63.59134956 -4.34394813 63.59134956 -6.53515625 65.05859375 C-14.47293256 69.98359188 -23.88193879 69.47867013 -32.97265625 68.68359375 C-41.38086218 66.69975054 -48.14499781 61.97133049 -53.97265625 55.68359375 C-54.65328125 54.96171875 -55.33390625 54.23984375 -56.03515625 53.49609375 C-62.28590925 44.42242004 -63.84085337 34.48103122 -62.97265625 23.68359375 C-60.61348992 13.39762856 -54.91484896 3.53759087 -45.97265625 -2.31640625 C-30.4069905 -10.58076691 -14.65855709 -10.62944194 0 0 Z " fill="#4587EF" transform="translate(335.97265625,111.31640625)"/>
<path d="M0 0 C4.29 0 8.58 0 13 0 C13 8.91 13 17.82 13 27 C15.64 25.35 18.28 23.7 21 22 C28.47392687 18.79688849 34.86989982 19.64308564 42.28125 22.5546875 C49.7294713 26.51423043 53.91387453 33.2909014 56.375 41.1796875 C58.34108542 50.05164794 57.14866185 57.92295923 53 66 C48.28898461 73.10826626 42.31155594 77.19670384 34 79 C26.11227388 79.98596577 20.78966334 76.80221147 14 73 C13.67 74.65 13.34 76.3 13 78 C10.85423363 78.02685938 8.70837355 78.04633088 6.5625 78.0625 C5.36753906 78.07410156 4.17257813 78.08570313 2.94140625 78.09765625 C0 78 0 78 -1 77 C-1.10025695 74.63238425 -1.13618935 72.29392927 -1.12939453 69.92578125 C-1.13114685 69.18597015 -1.13289917 68.44615906 -1.13470459 67.68392944 C-1.1391231 65.22676277 -1.13618513 62.76966747 -1.1328125 60.3125 C-1.13348554 58.61238593 -1.13445557 56.91227195 -1.13571167 55.2121582 C-1.13718864 51.64435919 -1.13503411 48.07658517 -1.13037109 44.50878906 C-1.1246738 39.92511506 -1.12795281 35.34149961 -1.13394356 30.75782776 C-1.13754919 27.24580439 -1.13641057 23.73379502 -1.13381577 20.22177124 C-1.1331465 18.53119907 -1.13397489 16.84062564 -1.13629532 15.15005493 C-1.13882189 12.79140843 -1.13498121 10.43285805 -1.12939453 8.07421875 C-1.13141876 7.36872894 -1.13344299 6.66323914 -1.13552856 5.93637085 C-1.11426271 1.11426271 -1.11426271 1.11426271 0 0 Z " fill="#4486EF" transform="translate(227,264)"/>
<path d="M0 0 C6.13181299 0.08673947 6.13181299 0.08673947 9.19140625 2.60546875 C10.91232697 4.98026749 12.44863714 7.39267303 13.89355469 9.94433594 C15.84771936 13.32436445 18.0462417 16.54875871 20.1875 19.8125 C22.085 22.761875 23.9825 25.71125 25.9375 28.75 C29.8975 34.69 33.8575 40.63 37.9375 46.75 C38.2675 31.57 38.5975 16.39 38.9375 0.75 C43.8875 0.75 48.8375 0.75 53.9375 0.75 C53.96005193 10.511514 53.97841561 20.27301083 53.98931217 30.03454494 C53.99454078 34.56674094 54.00163801 39.09891827 54.01293945 43.63110352 C54.02376914 48.0012283 54.02977701 52.37133508 54.03237724 56.74147224 C54.03423135 58.41250963 54.03785168 60.08354597 54.04323006 61.75457573 C54.05044159 64.08697551 54.0514909 66.41929993 54.05102539 68.75170898 C54.05462067 69.4494191 54.05821594 70.14712921 54.06192017 70.86598206 C54.05155216 75.63594784 54.05155216 75.63594784 52.9375 76.75 C47.92091013 77.3391968 43.45192565 77.78256295 39.1875 74.875 C32.17682979 65.13795805 25.56348344 55.16589212 19 45.125 C18.02032611 43.62881207 17.04050944 42.13271762 16.06054688 40.63671875 C13.68455227 37.00888692 11.31048712 33.37979968 8.9375 29.75 C8.92719254 30.32407089 8.91688507 30.89814178 8.90626526 31.48960876 C8.79842566 37.44265662 8.68381023 43.39554615 8.56518555 49.34838867 C8.52176412 51.57263896 8.48009455 53.79692415 8.44018555 56.02124023 C8.38265694 59.21088195 8.31891316 62.4003468 8.25390625 65.58984375 C8.22883751 67.09139259 8.22883751 67.09139259 8.20326233 68.62327576 C8.18331711 69.54415482 8.16337189 70.46503387 8.14282227 71.41381836 C8.12727798 72.22878281 8.1117337 73.04374725 8.09571838 73.88340759 C7.9375 75.75 7.9375 75.75 6.9375 76.75 C4.96130553 76.87514928 2.98011827 76.9257276 1 76.9375 C-0.08152344 76.95167969 -1.16304688 76.96585937 -2.27734375 76.98046875 C-5.0625 76.75 -5.0625 76.75 -7.0625 74.75 C-7.30973816 71.74485779 -7.30973816 71.74485779 -7.30541992 67.83764648 C-7.30731827 67.12695007 -7.30921661 66.41625366 -7.31117249 65.684021 C-7.31488406 63.3296005 -7.30417176 60.97548693 -7.29296875 58.62109375 C-7.29177716 56.98967017 -7.29132374 55.3582459 -7.2915802 53.7268219 C-7.29001473 50.30620027 -7.28171959 46.88568322 -7.26831055 43.46508789 C-7.25130716 39.07088375 -7.24749654 34.67679448 -7.24825573 30.2825613 C-7.2479844 26.91379186 -7.24250942 23.54504774 -7.23525429 20.1762867 C-7.23206262 18.55549372 -7.23009906 16.93469786 -7.22936058 15.3139019 C-7.22720302 13.05353736 -7.21847199 10.79329704 -7.20776367 8.53295898 C-7.20395187 7.24437485 -7.20014008 5.95579071 -7.19621277 4.62815857 C-6.96436188 -0.36241661 -4.5543287 0.35556183 0 0 Z " fill="#4687EF" transform="translate(94.0625,265.25)"/>
<path d="M0 0 C0.99 0.66 1.98 1.32 3 2 C3.33 0.68 3.66 -0.64 4 -2 C8.62 -2 13.24 -2 18 -2 C18 16.15 18 34.3 18 53 C13.38 53 8.76 53 4 53 C3.505 51.02 3.505 51.02 3 49 C1.9275 49.639375 0.855 50.27875 -0.25 50.9375 C-6.73184508 54.80167687 -13.61468982 54.61101487 -21 54 C-27.67364093 52.28235799 -32.19676603 47.56866088 -36 42 C-40.40343673 33.0963477 -41.52395162 23.85858427 -38.4375 14.375 C-35.26326153 6.50066107 -30.57055561 1.1584678 -22.796875 -2.30859375 C-14.28940433 -5.58212051 -7.93698103 -3.86275809 0 0 Z " fill="#4486EF" transform="translate(483,288)"/>
<path d="M0 0 C6.2694149 3.78530711 9.41553185 9.2611595 12 16 C14.5220409 26.34518687 12.74429818 34.66349539 7.375 43.75 C-0.10222754 50.83368925 -9.09216611 54.57415884 -19.38671875 54.30859375 C-27.66482495 53.33105954 -34.55364548 49.22620205 -40 43 C-45.25931296 34.84425382 -45.88968407 26.56927632 -45 17 C-42.57850073 8.61527588 -37.1593162 2.88818864 -29.6484375 -1.31640625 C-19.5276865 -5.9269706 -9.82766564 -4.89852493 0 0 Z " fill="#FCFDFE" transform="translate(328,117)"/>
<path d="M0 0 C5.4496652 3.45298114 10.91142871 8.36448777 13.32421875 14.47265625 C13.19921875 17.03515625 13.19921875 17.03515625 12.32421875 19.47265625 C9.15247775 22.34232667 5.66620263 23.65201096 1.69921875 25.16015625 C-7.23361833 28.6163603 -15.94758577 32.53347066 -24.67578125 36.47265625 C-23.94068062 39.54653225 -23.94068062 39.54653225 -21.67578125 41.16015625 C-17.51359535 42.98111258 -14.14443573 43.37073268 -9.67578125 42.47265625 C-5.21709911 40.33248882 -1.64513155 37.88860744 1.1640625 33.78515625 C3.32421875 31.47265625 3.32421875 31.47265625 6.55859375 30.984375 C8.29882812 31.07138672 8.29882812 31.07138672 10.07421875 31.16015625 C11.2446875 31.20527344 12.41515625 31.25039063 13.62109375 31.296875 C14.95914063 31.38388672 14.95914063 31.38388672 16.32421875 31.47265625 C15.17729684 38.86832514 11.29771097 45.31016231 5.38671875 49.91015625 C-2.65577074 55.34344114 -11.15600205 57.70785464 -20.83984375 56.1171875 C-28.50641144 54.09895678 -34.79273794 48.79722121 -39.16015625 42.24609375 C-43.36850364 34.10385642 -44.39586883 24.42866044 -41.83984375 15.578125 C-39.04682703 9.4766019 -35.11838156 5.32230037 -29.67578125 1.47265625 C-29.08152344 1.03824219 -28.48726563 0.60382813 -27.875 0.15625 C-19.76199618 -4.82968597 -8.39793477 -3.87276661 0 0 Z " fill="#4587EF" transform="translate(332.67578125,289.52734375)"/>
<path d="M0 0 C4.20415731 -0.31729489 7.90295116 0.12558682 12 1 C12.01458252 1.8564209 12.02916504 2.7128418 12.04418945 3.59521484 C12.1058081 6.81985139 12.18005996 10.04389878 12.26245117 13.26806641 C12.29538919 14.65467655 12.3235144 16.04141077 12.34643555 17.42822266 C12.51479563 29.51788943 12.51479563 29.51788943 16 41 C18.14460916 43.35553653 18.14460916 43.35553653 21 44 C24.11635172 43.87534593 26.13046645 43.71196345 28.57495117 41.71044922 C34.54968119 34.53913544 33.35560462 23.56471582 33.1875 14.875 C33.17241432 13.52345254 33.15873283 12.17188865 33.14648438 10.8203125 C33.11140994 7.54669874 33.0576134 4.27329466 33 1 C37.62 1 42.24 1 47 1 C49.13297656 16.13725298 50.88273562 37.55891949 41.31640625 50.5234375 C36.97766884 55.39003317 32.80752531 57.63632899 26.30078125 58.2578125 C18.62944177 58.55248623 11.50921527 57.66373741 5.375 52.6796875 C-2.79740436 43.77760418 -2.1866465 31.09082155 -2.18530273 19.81933594 C-2.1875092 17.74133402 -2.20576822 15.66384721 -2.22460938 13.5859375 C-2.22654297 12.27367187 -2.22847656 10.96140625 -2.23046875 9.609375 C-2.23663208 7.8145166 -2.23663208 7.8145166 -2.24291992 5.98339844 C-2 3 -2 3 0 0 Z " fill="#4486EF" transform="translate(165,285)"/>
<path d="M0 0 C15.18 0 30.36 0 46 0 C46 4.62 46 9.24 46 14 C36.1 14 26.2 14 16 14 C16 24.89 16 35.78 16 47 C10.72 47 5.44 47 0 47 C0 31.49 0 15.98 0 0 Z " fill="#F29F00" transform="translate(354,294)"/>
<path d="M0 0 C2 1 2 1 2.87916565 3.04295349 C3.1737114 3.94070999 3.46825714 4.83846649 3.77172852 5.76342773 C4.10870255 6.77795517 4.44567657 7.7924826 4.79286194 8.8377533 C5.15125656 9.94188065 5.50965118 11.046008 5.87890625 12.18359375 C6.25103745 13.30943375 6.62316864 14.43527374 7.00657654 15.5952301 C8.19894007 19.20704018 9.38102231 22.82211593 10.5625 26.4375 C11.74958104 30.04861442 12.93873403 33.65903699 14.12913513 37.26905823 C14.87050737 39.51968663 15.60954663 41.77108507 16.34608459 44.02330017 C16.67990646 45.04097977 17.01372833 46.05865936 17.35766602 47.10717773 C17.65141617 48.00572983 17.94516632 48.90428192 18.24781799 49.83006287 C18.95088004 52.00976482 18.95088004 52.00976482 20 54 C20.48919922 52.62714844 20.48919922 52.62714844 20.98828125 51.2265625 C21.42527344 50.03804687 21.86226563 48.84953125 22.3125 47.625 C22.74175781 46.44164062 23.17101562 45.25828125 23.61328125 44.0390625 C25 41 25 41 28 39 C30.48046875 38.8046875 30.48046875 38.8046875 33.1875 38.875 C34.08855469 38.89304688 34.98960937 38.91109375 35.91796875 38.9296875 C36.60503906 38.95289063 37.29210937 38.97609375 38 39 C38.36351562 37.27716797 38.36351562 37.27716797 38.734375 35.51953125 C40.73820798 26.17973427 42.98608492 17.07380816 46 8 C47.65 8.66 49.3 9.32 51 10 C50.27884911 17.29263839 48.66716671 24.30878953 47 31.4375 C46.72671875 32.63310547 46.4534375 33.82871094 46.171875 35.06054688 C44.12807642 43.87192358 44.12807642 43.87192358 43 45 C42.2059375 44.9071875 41.411875 44.814375 40.59375 44.71875 C36.81630837 44.45165817 34.53613127 44.56077749 31 46 C26.85609139 50.9002698 24.46179473 57.13769588 22 63 C19.69 63 17.38 63 15 63 C14.64172119 61.88963379 14.28344238 60.77926758 13.91430664 59.63525391 C12.58713702 55.52356845 11.25787734 51.41256125 9.92797852 47.30175781 C9.35221044 45.52101842 8.77701264 43.74009454 8.20239258 41.95898438 C7.37730657 39.40185845 6.55018543 36.84539866 5.72265625 34.2890625 C5.46533218 33.49005524 5.20800812 32.69104797 4.94288635 31.86782837 C3.6687932 27.85598606 3.6687932 27.85598606 2 24 C1.72285156 25.20398438 1.44570312 26.40796875 1.16015625 27.6484375 C0.79440321 29.22398907 0.42851055 30.79950823 0.0625 32.375 C-0.11990234 33.1690625 -0.30230469 33.963125 -0.49023438 34.78125 C-0.66748047 35.54179687 -0.84472656 36.30234375 -1.02734375 37.0859375 C-1.18968506 37.7876709 -1.35202637 38.4894043 -1.51928711 39.21240234 C-2 41 -2 41 -3 43 C-14.55 43 -26.1 43 -38 43 C-38 41.02 -38 39.04 -38 37 C-28.43 37 -18.86 37 -9 37 C-8.4225 34.195 -7.845 31.39 -7.25 28.5 C-5.88290109 21.95033786 -4.43247714 15.42947542 -2.8125 8.9375 C-2.56258301 7.93009766 -2.56258301 7.93009766 -2.30761719 6.90234375 C-1.69421118 4.48398743 -1.11933084 2.23866169 0 0 Z " fill="#4788EF" transform="translate(249,171)"/>
<path d="M0 0 C6.6 0 13.2 0 20 0 C20 17.16 20 34.32 20 52 C13.73 52 7.46 52 1 52 C-1 50 -1 50 -1.24723816 47.9059906 C-1.24581314 47.04296829 -1.24438812 46.17994598 -1.24291992 45.29077148 C-1.24599655 44.31313339 -1.24907318 43.3354953 -1.25224304 42.32823181 C-1.24505753 41.26987625 -1.23787201 40.21152069 -1.23046875 39.12109375 C-1.23001053 38.03868912 -1.22955231 36.95628448 -1.2290802 35.84107971 C-1.22605559 33.55037339 -1.21816309 31.25966916 -1.20581055 28.96899414 C-1.18755785 25.44865697 -1.18530078 21.92858266 -1.18554688 18.40820312 C-1.18063175 16.18749771 -1.17480346 13.96679409 -1.16796875 11.74609375 C-1.16685593 10.68571396 -1.1657431 9.62533417 -1.16459656 8.53282166 C-1.15502678 7.07109276 -1.15502678 7.07109276 -1.14526367 5.57983398 C-1.14145187 4.71760727 -1.13764008 3.85538055 -1.13371277 2.96702576 C-1 1 -1 1 0 0 Z " fill="#4888EF" transform="translate(216,150)"/>
<path d="M0 0 C6.6 0 13.2 0 20 0 C20 24.75 20 49.5 20 75 C17.76860935 71.65291402 16.5208519 68.24511097 15.1796875 64.48828125 C14.91616486 63.76005661 14.65264221 63.03183197 14.38113403 62.28153992 C13.54197169 59.95987196 12.70842192 57.63623402 11.875 55.3125 C11.3063586 53.73619496 10.73735245 52.16002144 10.16796875 50.58398438 C8.77441201 46.72416857 7.38588482 42.86257674 6 39 C5.52403911 40.26015232 5.04894987 41.52063388 4.57421875 42.78125 C4.30955811 43.48314453 4.04489746 44.18503906 3.7722168 44.90820312 C2.78406165 47.58493827 1.88185385 50.28660354 1 53 C0.67 53 0.34 53 0 53 C0 35.51 0 18.02 0 0 Z " fill="#4587EF" transform="translate(243,125)"/>
<path d="M0 0 C0.66 0.33 1.32 0.66 2 1 C1.36843005 6.05255964 -0.13459373 10.29593201 -2 15 C-3.36125 14.87625 -3.36125 14.87625 -4.75 14.75 C-8.06067033 14.70242646 -8.06067033 14.70242646 -10.3125 16.8125 C-13.49336846 20.935848 -13.2084955 25.18342853 -13.31640625 30.16796875 C-13.33718735 30.96278152 -13.35796844 31.7575943 -13.37937927 32.57649231 C-13.44472087 35.11340763 -13.50368808 37.65042573 -13.5625 40.1875 C-13.60569986 41.90821372 -13.64931463 43.62891708 -13.69335938 45.34960938 C-13.80038648 49.56630113 -13.90169724 53.7830962 -14 58 C-18.62 58 -23.24 58 -28 58 C-28 39.85 -28 21.7 -28 3 C-24.04 3 -20.08 3 -16 3 C-15.67 3.99 -15.34 4.98 -15 6 C-13.94039063 5.55527344 -12.88078125 5.11054688 -11.7890625 4.65234375 C-10.40120899 4.08032304 -9.01317892 3.50873056 -7.625 2.9375 C-6.92632812 2.64294922 -6.22765625 2.34839844 -5.5078125 2.04492188 C-3.69495092 1.30408902 -1.84876857 0.64603036 0 0 Z " fill="#4587EF" transform="translate(437,283)"/>
<path d="M0 0 C5.26594344 1.85856827 7.79395768 4.60314196 11 9 C12.73265462 14.19796387 12.44519351 18.5407546 10.875 23.6875 C8.21842697 28.38077902 5.23233234 31.25588922 0 33 C-4.66507623 33.3823833 -7.04127641 33.47936179 -11.25 31.375 C-15.05611139 28.0879038 -17.40964053 24.7710784 -19 20 C-19.36826224 14.38400084 -19.21556007 10.82334011 -16 6 C-10.96790303 1.03499765 -7.09499299 -0.71613013 0 0 Z " fill="#FCFDFE" transform="translate(476,297)"/>
<path d="M0 0 C4.28590933 2.79515826 7.22425239 5.92275717 8.875 10.875 C9.26532004 16.72980059 8.84049032 20.6359671 5.875 25.875 C2.20749974 29.65986027 -1.06675577 32.0159751 -6.375 32.1875 C-11.04281271 32.12006771 -13.56295205 31.02285633 -17.125 27.875 C-21.47144762 22.23636525 -22.83620599 17.98705988 -22.125 10.875 C-20.07005021 6.40342926 -17.4865605 2.34655095 -13.125 -0.125 C-8.46247142 -1.67917619 -4.63746673 -1.66948802 0 0 Z " fill="#FCFDFE" transform="translate(261.125,298.125)"/>
<path d="M0 0 C6.27 0 12.54 0 19 0 C19 11.55 19 23.1 19 35 C12.73 35 6.46 35 0 35 C-1.47712785 32.0457443 -1.12989998 29.38739796 -1.1328125 26.09375 C-1.13376923 25.41324585 -1.13472595 24.7327417 -1.13571167 24.03161621 C-1.13639231 22.59252836 -1.13454607 21.15343743 -1.13037109 19.71435547 C-1.12502115 17.50871907 -1.13031991 15.3032863 -1.13671875 13.09765625 C-1.13605795 11.70052038 -1.13477674 10.30338464 -1.1328125 8.90625 C-1.13168457 7.63072266 -1.13055664 6.35519531 -1.12939453 5.04101562 C-1 2 -1 2 0 0 Z " fill="#4386EF" transform="translate(191,167)"/>
<path d="M0 0 C15.18 0 30.36 0 46 0 C46 4.62 46 9.24 46 14 C30.82 14 15.64 14 0 14 C0 9.38 0 4.76 0 0 Z " fill="#DB4437" transform="translate(354,266)"/>
<path d="M0 0 C5.28 0 10.56 0 16 0 C16 10.89 16 21.78 16 33 C10.72 33 5.44 33 0 33 C0 22.11 0 11.22 0 0 Z " fill="#0F9C59" transform="translate(354,308)"/>
<path d="M0 0 C9.9 0 19.8 0 30 0 C30 4.95 30 9.9 30 15 C20.1 15 10.2 15 0 15 C0 10.05 0 5.1 0 0 Z " fill="#C9D646" transform="translate(370,327)"/>
<path d="M0 0 C2.3125 -0.25 2.3125 -0.25 5 0 C7.3548828 2.61087224 8.56655343 5.10870797 9.60546875 8.44140625 C9.86650391 9.27220703 10.12753906 10.10300781 10.39648438 10.95898438 C10.65751953 11.81814453 10.91855469 12.67730469 11.1875 13.5625 C11.46013672 14.42552734 11.73277344 15.28855469 12.01367188 16.17773438 C14 22.58476269 14 22.58476269 14 26 C18.62 26 23.24 26 28 26 C28 27.98 28 29.96 28 32 C22.06 32 16.12 32 10 32 C7.58774558 25.56732154 5.38705606 19.16483224 3.3125 12.625 C2.99216797 11.62855469 2.67183594 10.63210937 2.34179688 9.60546875 C2.03951172 8.65542969 1.73722656 7.70539063 1.42578125 6.7265625 C1.01453003 5.43613037 1.01453003 5.43613037 0.5949707 4.11962891 C0 2 0 2 0 0 Z " fill="#4788EF" transform="translate(307,182)"/>
<path d="M0 0 C5.28 0 10.56 0 16 0 C16 4.29 16 8.58 16 13 C25.9 13 35.8 13 46 13 C46 13.33 46 13.66 46 14 C30.82 14 15.64 14 0 14 C0 9.38 0 4.76 0 0 Z " fill="#C8D141" transform="translate(354,294)"/>
<path d="M0 0 C1.65234375 1.09375 1.65234375 1.09375 4.02734375 3.09375 C1.13008831 5.4143345 -1.72907544 7.04102618 -5.10546875 8.57421875 C-6.07613281 9.01572266 -7.04679687 9.45722656 -8.046875 9.91210938 C-9.05363281 10.36392578 -10.06039063 10.81574219 -11.09765625 11.28125 C-12.11214844 11.74466797 -13.12664062 12.20808594 -14.171875 12.68554688 C-21.71108132 16.09375 -21.71108132 16.09375 -23.97265625 16.09375 C-23.48693565 11.11511384 -22.09101891 7.02022493 -18.97265625 3.09375 C-13.47434287 -1.19493444 -6.66347883 -3.06124176 0 0 Z " fill="#FAFBFE" transform="translate(325.97265625,299.90625)"/>
<path d="M0 0 C5.28 0 10.56 0 16 0 C16 4.62 16 9.24 16 14 C10.72 14 5.44 14 0 14 C0 9.38 0 4.76 0 0 Z " fill="#4185EE" transform="translate(354,327)"/>
<path d="M0 0 C5.28 0 10.56 0 16 0 C16 4.62 16 9.24 16 14 C10.72 14 5.44 14 0 14 C0 9.38 0 4.76 0 0 Z " fill="#4285EE" transform="translate(354,280)"/>
<path d="M0 0 C5.28 0 10.56 0 16 0 C16 4.62 16 9.24 16 14 C10.72 14 5.44 14 0 14 C0 9.38 0 4.76 0 0 Z " fill="#F29F00" transform="translate(354,266)"/>
<path d="M0 0 C2 1 2 1 2.86962891 3.00952148 C3.15241699 3.87134033 3.43520508 4.73315918 3.7265625 5.62109375 C4.0359375 6.55630859 4.3453125 7.49152344 4.6640625 8.45507812 C4.98117187 9.43927734 5.29828125 10.42347656 5.625 11.4375 C5.94984375 12.41783203 6.2746875 13.39816406 6.609375 14.40820312 C9 21.70563616 9 21.70563616 9 24 C7.02 24 5.04 24 3 24 C2.67 22.02 2.34 20.04 2 18 C1.34 18 0.68 18 0 18 C-0.33 19.65 -0.66 21.3 -1 23 C-2.65 22.67 -4.3 22.34 -6 22 C-5.19331101 18.51945926 -4.37868121 15.040826 -3.5625 11.5625 C-3.21735352 10.07266602 -3.21735352 10.07266602 -2.86523438 8.55273438 C-2.64287109 7.60849609 -2.42050781 6.66425781 -2.19140625 5.69140625 C-1.98717041 4.81685791 -1.78293457 3.94230957 -1.57250977 3.04125977 C-1 1 -1 1 0 0 Z " fill="#4989EF" transform="translate(303,144)"/>
<path d="M0 0 C0.495 1.485 0.495 1.485 1 3 C-0.28965176 4.37562854 -1.62689293 5.70766393 -3 7 C-3.66 7 -4.32 7 -5 7 C-5.22558594 7.53109375 -5.45117188 8.0621875 -5.68359375 8.609375 C-7.08403415 11.15260801 -8.78223292 13.28315425 -10.62988281 15.51489258 C-22.31174068 29.6633186 -30.36608467 45.98839911 -35.75 63.5 C-36.1625 64.655 -36.575 65.81 -37 67 C-38.485 67.495 -38.485 67.495 -40 68 C-34.63969514 41.04532413 -18.48927985 19.52639613 0 0 Z " fill="#AFAFAF" transform="translate(43,161)"/>
<path d="M0 0 C4.17165959 0.56702169 6.99579683 3.03622108 10.25 5.5 C22.64289222 14.56956709 35.47113043 21.07332215 50 26 C49.505 27.485 49.505 27.485 49 29 C30.81191358 22.04573166 14.75671677 13.84545526 0 1 C0 0.67 0 0.34 0 0 Z " fill="#B5B5B5" transform="translate(48,367)"/>
<path d="M0 0 C0.58265625 0.12117188 1.1653125 0.24234375 1.765625 0.3671875 C4.50743609 0.92762059 7.25291241 1.46601556 10 2 C10.82822266 2.16177734 11.65644531 2.32355469 12.50976562 2.49023438 C22.03288438 4.2121267 31.61231813 4.89405743 41.25 5.625 C42.97790214 5.7599366 44.70576713 5.89534985 46.43359375 6.03125 C50.62198835 6.359656 54.81083083 6.68163335 59 7 C59 7.33 59 7.66 59 8 C38.86411317 8.42549826 19.3363739 8.25327688 0 2 C0 1.34 0 0.68 0 0 Z " fill="#BDBDBD" transform="translate(98,394)"/>
<path d="M0 0 C0.33 0.99 0.66 1.98 1 3 C-0.28965176 4.37562854 -1.62689293 5.70766393 -3 7 C-3.66 7 -4.32 7 -5 7 C-5.33257812 7.78503906 -5.33257812 7.78503906 -5.671875 8.5859375 C-7.49292177 11.8959578 -9.87345109 14.70613275 -12.25 17.625 C-16.2507294 22.59787535 -19.76032644 27.56121984 -22.78125 33.20703125 C-24 35 -24 35 -27 36 C-22.15206882 22.4257927 -10.13023921 9.98824398 0 0 Z " fill="#B7B7B7" transform="translate(43,161)"/>
<path d="M0 0 C0.66 0 1.32 0 2 0 C3.98 5.94 5.96 11.88 8 18 C7.01 18 6.02 18 5 18 C4.16112944 15.56427941 3.32873471 13.12666783 2.5 10.6875 C2.14228516 9.65206055 2.14228516 9.65206055 1.77734375 8.59570312 C0.76791737 5.61068511 0 3.17341086 0 0 Z " fill="#F1F6FD" transform="translate(251,172)"/>
<path d="M0 0 C1.299375 -0.02126953 1.299375 -0.02126953 2.625 -0.04296875 C5 0.1875 5 0.1875 8 2.1875 C2.39 2.8475 -3.22 3.5075 -9 4.1875 C-8.67 3.1975 -8.34 2.2075 -8 1.1875 C-5.07345473 0.21198491 -3.05345004 0.02271912 0 0 Z " fill="#C1C1C1" transform="translate(121,123.8125)"/>
<path d="M0 0 C0 0.66 0 1.32 0 2 C-1.95330868 3.03041513 -3.91281528 4.0490893 -5.875 5.0625 C-6.96554688 5.63097656 -8.05609375 6.19945312 -9.1796875 6.78515625 C-10.11039062 7.18605469 -11.04109375 7.58695313 -12 8 C-12.66 7.67 -13.32 7.34 -14 7 C-11.725306 4.44736912 -9.56797307 3.15855185 -6.4375 1.8125 C-5.65246094 1.46832031 -4.86742188 1.12414062 -4.05859375 0.76953125 C-2 0 -2 0 0 0 Z " fill="#B5B5B5" transform="translate(88,133)"/>
<path d="M0 0 C0.33 0.66 0.66 1.32 1 2 C0.109375 4.34765625 0.109375 4.34765625 -1.25 7.0625 C-1.68828125 7.96097656 -2.1265625 8.85945312 -2.578125 9.78515625 C-4 12 -4 12 -7 13 C-5.69045524 8.76916309 -4.16145284 4.872603 -2 1 C-1.34 0.67 -0.68 0.34 0 0 Z " fill="#BABABA" transform="translate(17,196)"/>
<path d="M0 0 C0.66 0.33 1.32 0.66 2 1 C-0.64 3.64 -3.28 6.28 -6 9 C-6.66 8.01 -7.32 7.02 -8 6 C-5.36 4.02 -2.72 2.04 0 0 Z " fill="#74A5F3" transform="translate(355,175)"/>
<path d="M0 0 C4.95 1.98 4.95 1.98 10 4 C10 4.66 10 5.32 10 6 C6.05879291 5.43697042 3.2491277 4.3208055 0 2 C0 1.34 0 0.68 0 0 Z " fill="#BDBDBD" transform="translate(79,386)"/>
<path d="M0 0 C0.33 0.99 0.66 1.98 1 3 C-1.97 5.475 -1.97 5.475 -5 8 C-5.66 7.67 -6.32 7.34 -7 7 C-4.69 4.69 -2.38 2.38 0 0 Z " fill="#9F9F9F" transform="translate(43,161)"/>
<path d="M0 0 C0.66 0.33 1.32 0.66 2 1 C0.6875 3.9375 0.6875 3.9375 -1 7 C-1.99 7.33 -2.98 7.66 -4 8 C-3.40138258 5.64828869 -2.73075648 3.3140622 -2 1 C-1.34 0.67 -0.68 0.34 0 0 Z " fill="#AAAAAA" transform="translate(11,208)"/>
<path d="M0 0 C0.33 0.99 0.66 1.98 1 3 C-0.65 4.65 -2.3 6.3 -4 8 C-4 4.87099787 -3.57548683 3.62581138 -2 1 C-1.34 0.67 -0.68 0.34 0 0 Z " fill="#ABABAB" transform="translate(21,189)"/>
<path d="M0 0 C0.66 0.33 1.32 0.66 2 1 C1.34 2.98 0.68 4.96 0 7 C-0.99 7 -1.98 7 -3 7 C-1.125 1.125 -1.125 1.125 0 0 Z " fill="#BDBDBD" transform="translate(8,215)"/>
</svg>
